<?xml version="1.0" encoding="UTF-8" standalone="no"?>
<svg
   xmlns:dc="http://purl.org/dc/elements/1.1/"
   xmlns:cc="http://creativecommons.org/ns#"
   xmlns:rdf="http://www.w3.org/1999/02/22-rdf-syntax-ns#"
   xmlns:svg="http://www.w3.org/2000/svg"
   xmlns="http://www.w3.org/2000/svg"
   enable-background="new 0 0 24 24"
   height="20"
   viewBox="0 0 19.893843 20"
   width="19.893843"
   version="1.1"
   id="svg26">
  <metadata
     id="metadata32">
    <rdf:RDF>
      <cc:Work
         rdf:about="">
        <dc:format>image/svg+xml</dc:format>
        <dc:type
           rdf:resource="http://purl.org/dc/dcmitype/StillImage" />
        <dc:title></dc:title>
      </cc:Work>
    </rdf:RDF>
  </metadata>
  <defs
     id="defs30" />
  <g
     display="none"
     id="g12"
     transform="translate(-2.0530785,-2)">
    <path
       d="M 0,0 H 24 V 24 H 0 Z"
       display="inline"
       fill="none"
       id="path10" />
  </g>
  <g
     id="g24"
     transform="translate(-2.0530785,-2)">
    <g
       id="g22">
      <path
         d="M 12.01,2 C 12,2 12,2 12.01,2 11.11,2 10.25,2.12 9.42,2.35 9.05,2.45 8.92,2.92 9.19,3.19 l 2.96,2.96 C 12.46,6.46 13,6.24 13,5.79 V 4.07 c 3.65,0.46 6.55,3.38 6.95,7.05 0.05,0.5 0.48,0.88 0.99,0.88 v 0 c 0.6,0 1.07,-0.53 1,-1.12 C 21.38,5.89 17.14,2 12.01,2 Z"
         id="path14" />
      <path
         d="M 10.85,17.85 C 10.54,17.54 10,17.76 10,18.21 v 1.53 C 6.83,18.92 4.41,16.2 4.05,12.88 3.99,12.37 3.56,12 3.06,12 2.46,12 1.99,12.53 2.06,13.12 2.62,18.11 6.87,22 12,22 c 0.59,0 1.17,-0.06 1.73,-0.16 0.4,-0.07 0.55,-0.56 0.27,-0.85 z"
         id="path16" />
      <path
         d="m 15.5,9 h -3 v 6 h 3 c 0.55,0 1,-0.45 1,-1 v -4 c 0,-0.55 -0.45,-1 -1,-1 z M 15,13.5 h -1 v -3 h 1 z"
         id="path18" />
      <path
         d="M 8.25,13.5 C 7.84,13.5 7.5,13.84 7.5,14.25 7.5,14.66 7.84,15 8.25,15 h 2.25 c 0.55,0 1,-0.45 1,-1 v -4 c 0,-0.55 -0.45,-1 -1,-1 H 8.25 C 7.84,9 7.5,9.34 7.5,9.75 c 0,0.41 0.34,0.75 0.75,0.75 H 10 v 1 H 9 c -0.28,0 -0.5,0.22 -0.5,0.5 0,0.28 0.22,0.5 0.5,0.5 h 1 v 1 z"
         id="path20" />
    </g>
  </g>
</svg>
