<svg xmlns="http://www.w3.org/2000/svg" viewBox="0 0 22.003052 20.004095">
  <defs/>
  <path fill="none" d="M-1.9969475-1.9959044h24v24h-24z"/>
  <path fill="#fff" d="M19.293052 3.8940956L9.2930525 13.894096c-.39.39-1.02.39-1.41 0l-2.83-2.83c-.39-.39-.39-1.02 0-1.4100004.39-.39 1.02-.39 1.41 0l2.12 2.1200004 9.2899995-9.2900004c.39-.39 1.02-.39 1.41 0 .4.39.4 1.02.01 1.41zm-9.29 14.1100004c-4.7099995 0-8.4799995-4.09-7.9499995-8.9000004.39-3.52 3.12-6.41 6.61-6.99 1.8099995-.3 3.5299995.02 4.9899995.78.39.2.86.13 1.17-.18.48-.48.36-1.29-.24-1.6-1.47-.75000004-3.13-1.16000004-4.8999995-1.11000004-5.14.16-9.41000003 4.34000004-9.67000003 9.47000004-.29 5.7700004 4.29000003 10.5300004 9.98999953 10.5300004 1.2 0 2.34-.21 3.41-.6.68-.25.87-1.13.35-1.65-.27-.27-.68-.37-1.04-.23-.85.31-1.77.48-2.72.48zm7-5h-2c-.55 0-1 .45-1 1s.45 1 1 1h2v2c0 .55.45 1 1 1s1-.45 1-1v-2h2c.55 0 1-.45 1-1s-.45-1-1-1h-2v-2c0-.55-.45-1-1-1s-1 .45-1 1z"/>
</svg>
